<?xml version="1.0" standalone="no"?>
<!DOCTYPE svg PUBLIC "-//W3C//DTD SVG 20010904//EN"
 "http://www.w3.org/TR/2001/REC-SVG-20010904/DTD/svg10.dtd">
<svg version="1.0" xmlns="http://www.w3.org/2000/svg"
 width="600.000000pt" height="600.000000pt" viewBox="0 0 600.000000 600.000000"
 preserveAspectRatio="xMidYMid meet">
<g transform="translate(0.000000,600.000000) scale(0.100000,-0.100000)"
fill="#000000" stroke="none">
<path d="M3832 4711 c-162 -135 -334 -395 -443 -668 -26 -65 -40 -86 -99 -140
-63 -59 -170 -187 -170 -205 0 -5 25 -8 56 -8 67 0 63 -15 -7 -24 l-51 -7 7
-52 c9 -66 30 -131 61 -183 19 -34 22 -47 14 -74 -24 -84 -124 -201 -236 -277
-33 -22 -115 -71 -184 -108 -243 -132 -352 -214 -468 -350 -61 -72 -148 -213
-164 -267 -6 -21 -12 -38 -13 -38 -1 0 -23 21 -51 48 -96 92 -225 138 -414
148 -394 21 -655 -210 -725 -641 -20 -119 -19 -304 0 -380 87 -339 450 -541
940 -522 170 7 276 26 470 88 286 90 566 149 704 149 l71 0 -35 69 -35 70 109
3 109 3 33 -39 c47 -56 98 -76 194 -76 57 0 87 5 103 16 27 19 28 45 2 69 -39
36 -72 156 -90 326 -5 53 -13 105 -16 115 -6 18 -5 17 9 -1 9 -11 17 -32 17
-47 0 -41 44 -160 85 -234 21 -38 63 -94 94 -125 48 -49 63 -58 104 -64 74
-11 201 19 213 50 4 9 -8 31 -31 56 -88 97 -110 215 -81 419 22 147 142 620
222 871 19 58 39 149 46 202 l12 96 120 119 121 119 75 17 c167 38 318 145
380 268 16 34 30 70 30 80 0 11 4 27 9 37 5 9 14 47 18 83 l9 65 -130 6 c-72
4 -144 10 -161 15 l-30 8 -5 93 -5 93 28 14 c15 8 27 19 27 25 0 6 -6 6 -19
-1 -30 -16 -41 -12 -41 14 0 12 -12 45 -26 71 l-25 49 11 239 c6 131 9 241 7
243 -6 6 -94 -44 -152 -86 -67 -50 -183 -174 -220 -237 l-30 -51 -75 -6 c-41
-4 -103 -12 -138 -20 -52 -11 -62 -11 -58 0 16 41 28 202 23 294 -7 119 -25
230 -38 230 -4 0 -34 -22 -67 -49z m72 -221 c1 -96 -3 -196 -7 -221 l-8 -47
-92 -29 c-51 -16 -94 -28 -96 -27 -7 6 21 179 40 242 28 89 73 179 112 220 17
17 26 32 20 32 -18 0 -91 -86 -118 -140 -35 -68 -64 -184 -71 -285 l-7 -82
-90 -44 c-50 -24 -110 -59 -134 -77 -25 -19 -47 -32 -49 -29 -11 10 149 324
214 422 38 58 108 142 166 200 l99 100 10 -30 c5 -16 10 -109 11 -205z m655
13 c-4 -54 -7 -151 -8 -215 l-1 -117 -51 35 c-28 19 -59 34 -68 34 -29 0 -30
9 -10 82 22 78 49 136 88 187 l26 35 -27 -18 c-43 -28 -95 -120 -114 -202 -10
-40 -21 -71 -25 -69 -3 3 -39 6 -78 7 -39 1 -71 4 -71 6 0 14 90 130 141 181
53 52 182 150 199 151 3 0 2 -44 -1 -97z m-122 -293 c74 -32 135 -96 153 -161
8 -27 7 -27 -25 -22 -27 4 -35 1 -46 -18 -7 -13 -13 -45 -13 -71 -1 -25 -4
-44 -8 -41 -13 7 -8 95 6 136 12 32 12 36 0 26 -8 -6 -20 -33 -28 -59 -17 -56
-7 -115 25 -160 23 -31 91 -66 108 -56 6 4 11 5 11 2 0 -3 -21 -14 -47 -26
-57 -25 -87 -52 -115 -101 -11 -20 -39 -47 -62 -60 -36 -21 -53 -24 -151 -23
-120 0 -198 16 -299 62 -81 36 -156 35 -246 -2 -55 -23 -228 -75 -253 -76 -10
0 77 129 128 190 20 25 64 73 97 108 33 34 57 62 53 62 -20 0 -120 -88 -169
-150 -59 -73 -170 -240 -163 -246 2 -2 35 5 73 15 38 11 70 18 72 17 1 -2 -31
-23 -73 -47 -73 -41 -75 -43 -53 -56 35 -19 176 -63 204 -63 13 0 24 -5 24
-10 0 -7 -14 -8 -37 -4 -43 7 -40 2 26 -45 45 -32 182 -81 227 -81 13 0 33 -9
44 -20 41 -41 16 -200 -51 -332 -34 -66 -14 -55 24 14 68 123 93 241 64 310
-16 38 -17 39 -142 69 -60 15 -145 50 -145 60 0 5 19 9 43 10 94 2 96 14 4 32
-48 10 -127 30 -174 45 l-86 27 113 68 c189 114 279 131 393 78 125 -58 325
-82 430 -52 36 10 57 25 80 55 99 125 147 150 274 139 71 -6 71 -6 76 -39 7
-42 34 -82 68 -103 l28 -17 -24 -57 c-56 -139 -189 -235 -390 -283 -238 -57
-388 -109 -191 -66 l87 19 -99 -101 c-96 -98 -161 -182 -217 -279 -39 -69 -25
-68 18 0 20 32 46 69 58 83 l21 25 -6 -55 c-13 -131 -82 -317 -157 -426 -55
-81 -143 -158 -227 -203 -44 -22 -86 -41 -94 -41 -7 1 14 26 47 57 45 41 52
51 27 37 -142 -80 -253 -295 -256 -496 -1 -88 -1 -89 -15 -54 -10 27 -19 36
-37 36 -20 0 -26 -9 -42 -62 -10 -35 -24 -63 -31 -63 -6 0 -24 22 -39 50 -27
49 -54 67 -74 47 -5 -5 -13 -34 -16 -63 -8 -63 -28 -74 -66 -36 -29 29 -40 65
-67 222 -17 96 -20 148 -17 260 3 77 9 149 13 159 6 13 5 17 -2 13 -19 -12
-37 -140 -37 -262 1 -144 23 -275 69 -410 l34 -100 -32 -29 c-18 -15 -57 -40
-86 -54 -52 -24 -56 -24 -65 -7 -6 9 -27 38 -47 62 l-35 46 32 86 c115 305 67
526 -134 619 -49 23 -71 26 -152 27 -88 0 -101 -3 -162 -33 -64 -31 -178 -131
-178 -155 0 -6 24 12 53 40 99 97 235 145 345 122 107 -22 185 -77 230 -163
25 -48 27 -59 26 -176 0 -114 -3 -134 -33 -220 -42 -124 -47 -132 -68 -102
-27 38 -187 168 -262 211 -97 57 -209 100 -321 123 -132 27 -371 22 -475 -12
-82 -26 -176 -74 -202 -102 -13 -15 0 -10 47 15 36 19 88 42 115 51 64 20 215
46 269 46 l41 0 -74 -42 c-41 -24 -79 -51 -85 -60 -22 -37 26 -76 155 -127 46
-18 88 -36 92 -41 5 -4 -33 -37 -82 -73 -50 -37 -91 -73 -91 -80 0 -34 71 -71
193 -102 l91 -23 -69 -34 c-39 -20 -107 -50 -153 -68 -118 -47 -104 -74 67
-123 l84 -24 -74 -53 c-138 -97 -152 -102 -308 -101 -440 2 -759 183 -845 481
-55 187 -4 531 105 717 52 88 157 188 241 228 110 53 198 69 347 62 139 -6
229 -28 317 -78 50 -28 134 -109 134 -128 0 -5 -6 -38 -14 -73 -17 -76 -29
-190 -16 -143 5 17 18 71 30 120 42 179 154 369 297 506 100 95 180 151 378
262 88 49 181 104 206 123 74 54 179 172 206 231 l25 54 46 -44 c58 -53 145
-112 239 -161 39 -21 90 -53 112 -73 75 -64 117 -181 105 -290 l-7 -54 -36 35
-36 35 4 -90 c4 -107 -21 -228 -72 -355 -33 -80 -33 -81 -10 -79 12 0 25 4 29
8 4 3 -3 4 -15 2 -12 -2 -21 -1 -19 3 75 143 104 233 114 354 l7 79 23 -22 23
-22 8 29 c4 16 8 72 8 124 0 85 -3 101 -29 154 -38 77 -96 131 -198 186 -116
61 -174 101 -239 165 -65 64 -102 127 -124 210 -24 92 -27 88 83 114 138 33
138 33 28 45 -61 7 -101 16 -103 23 -7 20 205 226 282 275 157 100 295 159
465 197 205 46 426 51 517 11z m160 -226 c5 -15 -19 -44 -36 -44 -14 0 -14 -6
0 -31 6 -12 17 -18 25 -15 9 3 14 -1 14 -13 0 -11 2 -25 5 -33 3 -7 0 -20 -5
-28 -8 -13 -14 -11 -36 12 -50 49 -44 184 7 171 11 -3 23 -12 26 -19z m328
-273 c-3 -14 -7 -36 -10 -49 -7 -39 -16 -45 -36 -26 -11 10 -18 23 -15 30 3 8
0 11 -8 8 -8 -3 -16 4 -20 18 -13 49 -9 53 45 49 48 -3 50 -4 44 -30z m-896
-1316 c-43 -144 -129 -481 -129 -504 0 -10 -9 -21 -19 -24 -14 -3 -26 -25 -41
-76 -20 -66 -36 -96 -37 -68 0 30 -47 117 -66 123 -28 9 -42 -13 -57 -89 l-13
-62 -13 35 c-25 64 -40 85 -60 88 -21 3 -44 -31 -44 -65 0 -35 -10 -3 -19 58
-11 78 10 172 60 270 49 99 64 116 106 123 104 17 251 126 323 239 19 31 36
55 37 54 1 -1 -12 -47 -28 -102z m-1699 -492 c248 -62 490 -244 654 -493 38
-58 96 -162 96 -173 0 -3 -35 -8 -77 -11 -159 -14 -446 -81 -693 -161 -71 -23
-285 -77 -278 -70 2 2 37 26 78 53 82 54 125 95 116 110 -3 6 -21 14 -39 17
-55 12 -187 57 -187 65 0 4 19 13 43 19 106 32 283 129 265 146 -2 3 -48 16
-101 30 -102 26 -187 61 -187 76 0 5 37 36 82 70 46 33 87 67 91 75 13 23 -7
38 -98 74 -107 42 -155 70 -155 91 0 11 32 33 98 66 l98 50 64 -9 c36 -4 94
-16 130 -25z m1555 -115 c-13 -111 -14 -165 -3 -223 12 -67 61 -173 83 -182 8
-3 12 -9 9 -14 -3 -5 2 -9 10 -9 9 0 16 -3 16 -8 0 -29 -143 -53 -201 -33 -19
6 -50 26 -70 45 -56 52 -120 173 -71 135 15 -13 16 -12 3 4 -11 14 -17 15 -30
5 -9 -7 -13 -8 -9 -4 4 5 3 15 -2 21 -17 21 -60 137 -54 146 3 5 1 9 -3 9 -12
0 -9 45 3 62 6 7 10 20 9 28 -1 15 13 30 28 30 5 0 6 -4 2 -9 -3 -5 -1 -12 4
-15 5 -4 8 -17 6 -31 -1 -14 0 -24 2 -21 3 3 16 -6 30 -20 13 -13 28 -22 32
-19 8 4 34 87 36 112 0 7 5 17 11 23 9 9 16 0 29 -34 10 -25 18 -49 18 -53 0
-11 29 -32 43 -33 15 0 44 60 51 106 9 56 25 40 18 -18z m-399 -98 c3 -14 8
-61 13 -105 12 -105 28 -169 57 -228 13 -27 21 -54 17 -59 -3 -6 -1 -8 5 -4 6
3 14 2 17 -4 12 -19 -13 -36 -52 -35 -116 3 -130 6 -171 32 -23 15 -40 29 -38
31 2 2 -10 18 -27 36 -50 51 -66 74 -73 100 -8 32 -34 56 -34 32 0 -9 4 -16 9
-16 5 0 12 -11 15 -25 4 -14 16 -35 27 -46 11 -11 19 -22 17 -24 -1 -1 -53 -5
-114 -7 l-112 -4 -16 28 c-10 15 -15 28 -12 28 3 0 8 0 11 0 17 1 88 48 132
88 20 19 28 21 34 10 6 -8 7 3 3 27 -3 22 -9 45 -14 50 -4 6 -10 21 -13 33 -5
23 -5 23 13 7 25 -22 74 -29 66 -10 -3 8 0 15 6 17 5 2 12 25 15 50 3 26 11
49 19 52 8 3 15 1 15 -4 1 -6 3 -13 4 -17 2 -5 6 -18 10 -30 4 -13 12 -23 17
-23 5 0 7 -10 4 -22 -3 -13 -3 -17 0 -10 8 17 27 15 21 -2 -5 -12 -1 -13 15
-7 24 9 58 65 58 96 0 12 5 26 12 33 8 8 15 5 26 -16 8 -15 16 -38 18 -52z"/>
<path d="M3866 4597 c3 -10 9 -15 12 -12 3 3 0 11 -7 18 -10 9 -11 8 -5 -6z"/>
<path d="M3523 4146 c0 -7 6 -13 14 -13 7 0 13 4 13 8 0 4 -6 9 -13 12 -8 3
-14 0 -14 -7z"/>
<path d="M4400 4176 c7 -7 13 -7 20 0 6 6 3 10 -10 10 -13 0 -16 -4 -10 -10z"/>
<path d="M4500 4120 c0 -6 4 -9 9 -6 5 4 12 1 14 -4 3 -6 4 -5 3 2 -3 15 -26
23 -26 8z"/>
<path d="M4278 4053 c7 -3 16 -2 19 1 4 3 -2 6 -13 5 -11 0 -14 -3 -6 -6z"/>
<path d="M4393 4044 c-4 -12 -8 -13 -13 -3 -5 7 -7 2 -7 -13 3 -35 32 -30 32
5 1 31 -3 34 -12 11z"/>
<path d="M4329 4029 c-15 -15 -32 -16 -121 -12 -160 9 -225 -19 -264 -112 -13
-31 -13 -37 -2 -27 12 9 20 6 42 -17 44 -46 140 -85 214 -86 34 -1 62 2 62 7
0 4 -9 8 -21 8 -20 0 -20 1 4 30 33 39 51 94 44 136 -5 28 -3 34 12 34 20 0
55 34 50 47 -2 5 -11 1 -20 -8z m-114 -36 l47 -6 -4 -54 c-6 -70 -52 -140 -89
-135 -60 8 -199 94 -199 123 0 16 76 59 121 68 59 12 68 12 124 4z"/>
<path d="M4187 3939 c-3 -11 -10 -18 -15 -15 -18 11 -23 -26 -7 -50 19 -29 51
-31 65 -3 16 28 9 59 -16 76 -19 12 -22 12 -27 -8z"/>
<path d="M3926 3992 c-7 -11 -1 -48 7 -44 4 1 10 2 14 2 4 0 2 5 -5 12 -15 15
-16 31 0 22 7 -4 8 -3 4 4 -8 14 -13 15 -20 4z"/>
<path d="M3620 3916 c0 -2 9 -6 20 -9 11 -3 18 -1 14 4 -5 9 -34 13 -34 5z"/>
<path d="M3746 3896 c5 -13 4 -17 -3 -13 -6 4 -16 0 -22 -7 -9 -11 -9 -16 0
-22 7 -4 9 -3 5 4 -3 6 -2 13 4 17 5 3 10 0 10 -7 0 -8 5 -5 11 5 8 14 8 22
-1 30 -8 9 -9 7 -4 -7z"/>
<path d="M4411 3864 c0 -11 3 -14 6 -6 3 7 2 16 -1 19 -3 4 -6 -2 -5 -13z"/>
<path d="M4296 3832 c-3 -5 1 -9 9 -9 8 0 12 4 9 9 -3 4 -7 8 -9 8 -2 0 -6 -4
-9 -8z"/>
<path d="M4486 3810 c5 -8 9 -18 9 -22 0 -3 3 -9 7 -13 3 -4 5 0 4 9 -1 9 -8
22 -16 29 -10 10 -11 9 -4 -3z"/>
<path d="M4279 3808 c0 -2 -2 -13 -3 -25 -2 -19 0 -21 12 -11 9 8 10 14 3 16
-6 2 -9 8 -5 13 3 5 3 9 0 9 -3 0 -6 -1 -7 -2z"/>
<path d="M3253 3785 c-10 -11 -9 -13 6 -12 11 1 17 7 14 14 -6 16 -5 16 -20
-2z"/>
<path d="M3639 3773 c-13 -16 -12 -17 4 -4 16 13 21 21 13 21 -2 0 -10 -8 -17
-17z"/>
<path d="M4419 3743 c-13 -16 -12 -17 4 -4 16 13 21 21 13 21 -2 0 -10 -8 -17
-17z"/>
<path d="M3490 3725 c-7 -9 -11 -17 -9 -20 3 -2 10 5 17 15 14 24 10 26 -8 5z"/>
<path d="M4429 3713 c-13 -16 -12 -17 4 -4 9 7 17 15 17 17 0 8 -8 3 -21 -13z"/>
<path d="M4413 3672 c-8 -14 -8 -19 1 -19 7 0 13 9 13 19 1 10 1 18 0 18 -1 0
-7 -8 -14 -18z"/>
<path d="M3424 3643 c-16 -21 -35 -46 -43 -55 -8 -10 -10 -18 -5 -18 9 1 89
110 80 110 -3 0 -17 -17 -32 -37z"/>
<path d="M3288 3633 c7 -3 16 -2 19 1 4 3 -2 6 -13 5 -11 0 -14 -3 -6 -6z"/>
<path d="M3665 3561 c-3 -5 -2 -12 3 -15 5 -3 9 1 9 9 0 17 -3 19 -12 6z"/>
<path d="M3341 3518 c-10 -15 -8 -18 11 -18 12 0 18 3 15 7 -4 3 -2 11 3 18 7
8 5 12 -4 12 -7 0 -18 -9 -25 -19z"/>
<path d="M3606 3532 c-3 -5 13 -19 34 -33 23 -14 38 -30 35 -37 -3 -8 0 -10 6
-6 6 3 23 -3 38 -13 14 -11 36 -23 49 -27 13 -4 19 -12 16 -18 -5 -8 -1 -9 10
-5 13 5 17 3 13 -7 -4 -10 0 -12 14 -9 21 6 26 23 6 23 -17 0 -157 91 -181
119 -20 22 -32 26 -40 13z"/>
<path d="M3575 3510 c3 -5 11 -10 16 -10 6 0 7 5 4 10 -3 6 -11 10 -16 10 -6
0 -7 -4 -4 -10z"/>
<path d="M3540 3499 c0 -5 5 -7 10 -4 6 3 10 8 10 11 0 2 -4 4 -10 4 -5 0 -10
-5 -10 -11z"/>
<path d="M3354 3477 c-8 -9 -4 -17 13 -30 13 -11 26 -17 29 -14 3 3 -4 11 -16
17 -17 9 -19 14 -9 26 14 17 -1 18 -17 1z"/>
<path d="M3585 3479 c-4 -6 -5 -12 -2 -15 2 -3 7 2 10 11 7 17 1 20 -8 4z"/>
<path d="M4743 3433 c4 -3 1 -13 -6 -22 -11 -14 -10 -14 5 -2 16 12 16 31 1
31 -4 0 -3 -3 0 -7z"/>
<path d="M3250 3416 c0 -2 7 -7 16 -10 8 -3 12 -2 9 4 -6 10 -25 14 -25 6z"/>
<path d="M3448 3403 c7 -3 16 -2 19 1 4 3 -2 6 -13 5 -11 0 -14 -3 -6 -6z"/>
<path d="M3490 3390 c0 -4 11 -10 25 -12 13 -3 22 -2 20 2 -7 11 -45 20 -45
10z"/>
<path d="M3500 3360 c0 -5 5 -10 10 -10 6 0 10 5 10 10 0 6 -4 10 -10 10 -5 0
-10 -4 -10 -10z"/>
<path d="M3316 3351 c-4 -5 -2 -12 3 -15 5 -4 12 -2 15 3 4 5 2 12 -3 15 -5 4
-12 2 -15 -3z"/>
<path d="M3530 3345 c0 -10 53 -55 59 -50 2 3 2 6 0 8 -2 1 -16 13 -31 26 -16
14 -28 21 -28 16z"/>
<path d="M3813 3336 c15 -7 24 -15 21 -19 -4 -4 4 -7 18 -7 14 0 56 -11 93
-25 65 -23 125 -31 272 -36 108 -4 79 8 -34 14 -126 7 -230 27 -317 62 -63 25
-105 34 -53 11z"/>
<path d="M4555 3334 c-100 -14 -272 -17 -353 -5 -29 4 -55 4 -58 -1 -3 -5 -2
-8 3 -7 4 1 21 -3 37 -10 16 -6 36 -9 43 -7 8 3 11 2 8 -3 -5 -9 3 -13 58 -27
19 -5 18 -3 -6 14 l-29 19 129 2 c140 1 173 4 191 15 7 4 15 5 20 3 4 -3 21 1
37 8 35 16 35 16 -80 -1z"/>
<path d="M3605 3300 c-6 -10 84 -55 92 -46 2 2 -16 12 -41 21 -25 10 -43 21
-40 26 3 5 3 9 0 9 -3 0 -8 -5 -11 -10z"/>
<path d="M3730 3240 c25 -8 87 -13 79 -6 -2 2 -26 6 -54 9 -34 4 -42 3 -25 -3z"/>
<path d="M3192 3225 c2 -3 41 -27 85 -54 55 -33 85 -46 94 -40 11 7 10 9 -3 9
-18 0 -112 53 -136 77 -7 7 -21 13 -29 13 -9 0 -14 -2 -11 -5z"/>
<path d="M3160 3166 c0 -2 7 -7 16 -10 8 -3 12 -2 9 4 -6 10 -25 14 -25 6z"/>
<path d="M4210 3136 c0 -2 7 -7 16 -10 8 -3 12 -2 9 4 -6 10 -25 14 -25 6z"/>
<path d="M4193 3115 c0 -8 4 -12 9 -9 5 3 6 10 3 15 -9 13 -12 11 -12 -6z"/>
<path d="M3371 3116 c12 -12 131 -67 135 -63 6 6 -111 67 -128 67 -6 0 -9 -2
-7 -4z"/>
<path d="M4160 3106 c0 -2 8 -10 18 -17 15 -13 16 -12 3 4 -13 16 -21 21 -21
13z"/>
<path d="M3106 3073 c-6 -14 -5 -15 5 -6 7 7 10 15 7 18 -3 3 -9 -2 -12 -12z"/>
<path d="M3060 3066 c0 -2 7 -7 16 -10 8 -3 12 -2 9 4 -6 10 -25 14 -25 6z"/>
<path d="M3520 3055 c0 -3 18 -13 41 -24 25 -13 36 -15 29 -6 -11 13 -70 38
-70 30z"/>
<path d="M4087 3025 c3 -8 9 -12 14 -9 12 7 11 11 -5 17 -10 4 -13 1 -9 -8z"/>
<path d="M3610 3000 c-12 -8 -12 -10 -1 -10 8 0 11 -7 8 -20 -3 -11 -1 -17 4
-14 6 3 17 -13 26 -35 9 -23 20 -41 25 -41 4 0 4 8 -1 18 -5 9 -18 38 -28 64
-15 36 -22 45 -33 38z"/>
<path d="M2786 2912 c-3 -4 4 -9 15 -9 23 -2 25 3 4 10 -8 4 -16 3 -19 -1z"/>
<path d="M3570 2912 c0 -4 6 -27 14 -51 8 -29 15 -40 20 -32 5 7 3 18 -3 24
-6 6 -11 17 -11 25 0 10 8 7 30 -8 16 -12 27 -15 24 -8 -6 15 -74 61 -74 50z"/>
<path d="M3875 2890 c-3 -6 -3 -19 0 -30 5 -16 3 -19 -12 -14 -11 4 -14 3 -6
-3 6 -4 12 -15 14 -23 6 -28 -12 -160 -22 -160 -5 0 -9 -9 -9 -21 0 -11 -5
-29 -11 -40 -8 -16 -7 -25 7 -40 12 -13 14 -23 8 -27 -9 -6 -24 -34 -28 -52
-5 -20 -29 -50 -36 -45 -4 3 -6 -3 -3 -13 2 -10 -9 -34 -26 -56 -17 -21 -31
-46 -31 -55 1 -28 46 36 106 152 48 94 53 108 35 102 -11 -3 -21 -5 -21 -3 0
2 10 32 21 68 12 39 23 106 26 168 6 96 3 116 -12 92z"/>
<path d="M4045 2871 c-3 -5 -2 -12 3 -15 5 -3 9 1 9 9 0 17 -3 19 -12 6z"/>
<path d="M2695 2820 c-3 -5 -2 -10 4 -10 5 0 13 5 16 10 3 6 2 10 -4 10 -5 0
-13 -4 -16 -10z"/>
<path d="M3605 2775 c2 -22 4 -49 5 -60 0 -15 3 -16 9 -7 10 16 7 48 -8 82
-10 22 -10 21 -6 -15z"/>
<path d="M3845 2799 c-4 -6 -5 -12 -2 -15 2 -3 7 2 10 11 7 17 1 20 -8 4z"/>
<path d="M3623 2655 c0 -22 2 -30 4 -17 2 12 2 30 0 40 -3 9 -5 -1 -4 -23z"/>
<path d="M2460 2670 c-9 -6 -10 -10 -3 -10 6 0 15 5 18 10 8 12 4 12 -15 0z"/>
<path d="M2375 2609 c-6 -8 -4 -10 5 -4 9 5 10 1 6 -16 -6 -21 -6 -22 5 -6 7
13 8 22 1 29 -6 6 -12 6 -17 -3z"/>
<path d="M3926 2472 c-2 -4 -1 -14 4 -22 7 -11 9 -9 7 8 -1 24 -3 26 -11 14z"/>
<path d="M1869 2410 c13 -11 28 -20 35 -19 6 0 1 5 -11 11 -13 6 -23 15 -23
20 0 4 -6 8 -12 8 -7 -1 -2 -10 11 -20z"/>
<path d="M1770 2349 c-47 -17 -95 -32 -107 -36 -13 -3 -23 -8 -23 -12 0 -3
-20 -15 -45 -26 -25 -11 -45 -23 -45 -28 0 -4 5 -5 11 -1 6 3 32 7 58 7 39 0
41 1 16 6 -29 7 -27 8 45 43 41 19 103 41 137 48 35 7 60 17 57 21 -7 12 -6
12 -104 -22z"/>
<path d="M2580 2341 c-32 -10 -110 -50 -110 -56 0 -3 23 6 51 21 60 30 178 43
228 26 17 -6 31 -7 31 -3 0 20 -147 28 -200 12z"/>
<path d="M2823 2306 c0 -8 8 -12 21 -9 18 4 19 3 6 -7 -13 -9 -12 -10 5 -6 13
3 30 -4 48 -20 26 -22 33 -37 36 -69 1 -5 5 -3 11 5 9 15 12 10 46 -80 10 -26
13 -29 14 -13 0 30 -43 113 -77 144 -27 26 -92 69 -104 69 -3 0 -6 -6 -6 -14z"/>
<path d="M2185 2299 c-4 -6 -5 -12 -2 -15 2 -3 7 2 10 11 7 17 1 20 -8 4z"/>
<path d="M1740 2245 c41 -8 84 -14 95 -14 49 0 -26 18 -96 22 l-74 5 75 -13z"/>
<path d="M2815 2199 c-4 -6 -5 -12 -2 -15 2 -3 7 2 10 11 7 17 1 20 -8 4z"/>
<path d="M1805 2186 c-36 -16 -110 -63 -144 -91 -58 -49 -127 -132 -118 -142
3 -2 11 5 17 17 20 37 110 121 122 114 7 -4 8 -3 4 4 -4 6 5 18 21 28 15 9 41
26 56 36 16 11 45 26 65 33 20 7 30 14 22 14 -8 0 -28 -6 -45 -13z"/>
<path d="M3546 2147 c3 -10 9 -15 12 -12 3 3 0 11 -7 18 -10 9 -11 8 -5 -6z"/>
<path d="M2140 2123 c1 -33 33 -43 175 -53 120 -9 251 -42 239 -61 -3 -5 1 -6
9 -3 8 3 36 -13 63 -34 70 -55 109 -72 54 -24 -25 22 -81 58 -125 80 -68 35
-92 42 -165 47 -189 13 -211 16 -231 36 -10 10 -19 16 -19 12z"/>
<path d="M3526 2093 c-6 -14 -5 -15 5 -6 7 7 10 15 7 18 -3 3 -9 -2 -12 -12z"/>
<path d="M2905 2019 c-4 -6 -5 -12 -2 -15 2 -3 7 2 10 11 7 17 1 20 -8 4z"/>
<path d="M2817 1975 c3 -22 9 -44 14 -49 4 -5 5 2 2 15 -5 23 -5 23 10 4 8
-10 13 -26 10 -35 -4 -12 -3 -12 5 -1 13 18 6 39 -23 76 l-25 30 7 -40z"/>
<path d="M1497 1894 c-30 -60 -31 -64 -18 -64 8 0 54 110 48 116 -2 2 -15 -21
-30 -52z"/>
<path d="M1630 1916 c0 -2 7 -9 15 -16 9 -7 15 -8 15 -2 0 5 -7 12 -15 16 -8
3 -15 4 -15 2z"/>
<path d="M2875 1870 c9 -77 15 -111 20 -121 3 -5 1 -19 -5 -31 -11 -22 -10
-22 4 -4 9 11 14 29 11 40 -2 12 -7 45 -10 75 -3 29 -10 61 -15 70 -8 11 -9 3
-5 -29z"/>
<path d="M3180 1833 c0 -42 3 -73 6 -70 4 3 6 30 6 59 -1 41 1 49 9 35 6 -9 8
-20 6 -25 -3 -4 6 -18 19 -31 22 -24 23 -24 17 -3 -3 12 -9 22 -13 22 -4 0
-13 20 -20 45 -7 25 -17 45 -21 45 -5 0 -9 -34 -9 -77z"/>
<path d="M2720 1898 c0 -4 6 -13 13 -20 7 -7 27 -33 45 -57 17 -25 32 -40 32
-35 0 16 -89 127 -90 112z"/>
<path d="M1575 1882 c-11 -2 -25 -9 -32 -14 -7 -5 -16 -7 -22 -4 -5 3 -11 0
-14 -7 -4 -11 9 -10 60 4 36 10 68 21 71 24 6 5 -28 4 -63 -3z"/>
<path d="M1025 1824 c14 -31 22 -60 19 -65 -3 -5 1 -6 9 -3 9 3 18 -5 26 -23
6 -16 30 -48 51 -71 22 -23 40 -45 40 -50 1 -8 50 -46 50 -37 0 3 -19 26 -41
50 -23 25 -49 55 -57 67 -9 13 -18 25 -21 28 -16 14 -50 70 -69 113 -11 26
-23 47 -26 47 -3 0 5 -25 19 -56z"/>
<path d="M2831 1864 c0 -11 3 -14 6 -6 3 7 2 16 -1 19 -3 4 -6 -2 -5 -13z"/>
<path d="M2820 1825 c0 -8 5 -15 10 -15 6 0 10 7 10 15 0 8 -4 15 -10 15 -5 0
-10 -7 -10 -15z"/>
<path d="M3425 1819 c-4 -6 -5 -12 -2 -15 2 -3 7 2 10 11 7 17 1 20 -8 4z"/>
<path d="M1615 1790 c-3 -6 1 -7 9 -4 18 7 21 14 7 14 -6 0 -13 -4 -16 -10z"/>
<path d="M1642 1781 c-11 -6 -10 -10 4 -15 9 -3 19 -4 22 -1 3 3 0 5 -7 5 -7
0 -9 5 -6 10 7 12 4 12 -13 1z"/>
<path d="M2776 1752 c-3 -5 1 -9 9 -9 8 0 12 4 9 9 -3 4 -7 8 -9 8 -2 0 -6 -4
-9 -8z"/>
<path d="M3160 1756 c0 -2 8 -10 18 -17 15 -13 16 -12 3 4 -13 16 -21 21 -21
13z"/>
<path d="M1927 1709 c7 -7 15 -10 18 -7 3 3 -2 9 -12 12 -14 6 -15 5 -6 -5z"/>
<path d="M2876 1677 c-16 -12 -16 -14 -3 -14 9 0 18 6 21 14 3 7 4 13 3 13 -2
0 -11 -6 -21 -13z"/>
<path d="M2085 1661 c-3 -5 -2 -12 3 -15 5 -3 9 1 9 9 0 17 -3 19 -12 6z"/>
<path d="M2943 1598 c-11 -19 -13 -39 -1 -32 5 3 7 9 4 12 -3 3 -1 11 5 19 6
7 9 13 6 13 -3 0 -9 -6 -14 -12z"/>
<path d="M1230 1565 c0 -10 40 -45 53 -45 6 0 8 1 6 3 -2 1 -16 13 -31 26 -16
14 -28 21 -28 16z"/>
<path d="M1291 1506 c14 -14 120 -66 134 -66 9 0 14 -4 11 -8 -2 -4 3 -9 12
-10 9 -1 35 -4 57 -7 30 -4 22 1 -30 17 -38 13 -74 26 -80 29 -35 23 -87 49
-97 49 -6 0 -9 -2 -7 -4z"/>
<path d="M1403 1408 c-2 -5 10 -8 26 -8 17 0 31 4 31 9 0 11 -50 9 -57 -1z"/>
<path d="M1382 1384 c10 -9 69 -43 113 -64 82 -39 305 -82 305 -59 0 5 -15 9
-33 9 -91 0 -253 46 -326 91 -40 26 -75 39 -59 23z"/>
<path d="M1528 1383 c7 -3 16 -2 19 1 4 3 -2 6 -13 5 -11 0 -14 -3 -6 -6z"/>
<path d="M1074 1348 c-4 -7 -4 -10 1 -6 4 4 15 2 24 -5 14 -11 14 -10 2 6 -16
20 -18 21 -27 5z"/>
<path d="M1080 1326 c0 -2 8 -10 18 -17 15 -13 16 -12 3 4 -13 16 -21 21 -21
13z"/>
<path d="M1182 1271 c-11 -7 -11 -9 0 -14 9 -3 15 1 15 9 0 8 -1 14 -1 14 -1
0 -7 -4 -14 -9z"/>
<path d="M1841 1265 c7 -6 108 -9 114 -3 3 3 -22 6 -56 7 -35 1 -60 -1 -58 -4z"/>
<path d="M1165 1240 c10 -11 20 -20 23 -20 3 0 -3 9 -13 20 -10 11 -20 20 -23
20 -3 0 3 -9 13 -20z"/>
<path d="M1728 1233 c6 -2 18 -2 25 0 6 3 1 5 -13 5 -14 0 -19 -2 -12 -5z"/>
<path d="M1950 1216 c0 -2 7 -7 16 -10 8 -3 12 -2 9 4 -6 10 -25 14 -25 6z"/>
<path d="M3957 2293 c-4 -3 -7 -11 -7 -17 0 -6 5 -5 12 2 6 6 9 14 7 17 -3 3
-9 2 -12 -2z"/>
<path d="M3920 2275 c-10 -12 -10 -15 1 -15 7 0 -22 -25 -66 -55 -43 -30 -83
-55 -88 -55 -11 0 -87 -76 -87 -87 0 -3 19 12 43 33 24 22 63 51 88 67 86 53
124 85 125 106 1 25 0 25 -16 6z"/>
<path d="M3848 2121 c-1 -5 -36 -25 -77 -45 -40 -21 -71 -40 -68 -42 5 -5 12
-2 75 30 17 9 32 14 32 11 0 -10 -78 -85 -88 -85 -5 0 -34 -25 -65 -55 -38
-37 -57 -63 -56 -78 l2 -22 4 22 c2 12 28 41 56 65 98 82 167 151 160 162 -3
6 -2 8 2 3 9 -7 45 20 45 35 0 11 -17 10 -22 -1z"/>
<path d="M3640 1851 c0 -6 4 -13 10 -16 6 -3 7 1 4 9 -7 18 -14 21 -14 7z"/>
<path d="M2213 1723 c0 -9 4 -10 14 -2 7 6 13 12 13 14 0 1 -6 2 -13 2 -8 0
-14 -6 -14 -14z"/>
<path d="M2395 1324 c-49 -7 -98 -18 -107 -23 -9 -6 -18 -7 -20 -3 -2 4 -28 2
-58 -5 l-55 -11 75 3 c41 1 87 7 101 13 15 6 70 14 124 18 53 4 111 10 128 14
57 14 -90 9 -188 -6z"/>
<path d="M2510 1300 c-17 -6 -1 -8 50 -7 41 0 102 -2 135 -6 33 -4 100 -9 150
-13 49 -3 95 -10 102 -15 6 -6 24 -9 40 -7 20 3 8 8 -47 21 -144 33 -369 47
-430 27z"/>
<path d="M3590 1699 c0 -5 5 -7 10 -4 6 3 10 8 10 11 0 2 -4 4 -10 4 -5 0 -10
-5 -10 -11z"/>
<path d="M3766 1698 c3 -5 10 -6 15 -3 13 9 11 12 -6 12 -8 0 -12 -4 -9 -9z"/>
<path d="M3926 1381 c-4 -5 -2 -12 3 -15 5 -4 12 -2 15 3 4 5 2 12 -3 15 -5 4
-12 2 -15 -3z"/>
<path d="M3832 1341 c-11 -7 -11 -9 0 -14 9 -3 15 1 15 9 0 8 -1 14 -1 14 -1
0 -7 -4 -14 -9z"/>
<path d="M3283 3985 c0 -8 4 -12 9 -9 5 3 6 10 3 15 -9 13 -12 11 -12 -6z"/>
<path d="M3209 3903 c-13 -16 -12 -17 4 -4 16 13 21 21 13 21 -2 0 -10 -8 -17
-17z"/>
<path d="M3133 3365 c0 -8 4 -12 9 -9 5 3 6 10 3 15 -9 13 -12 11 -12 -6z"/>
<path d="M2175 2551 c-3 -5 -2 -12 3 -15 5 -3 9 1 9 9 0 17 -3 19 -12 6z"/>
</g>
</svg>
